<svg width="504" height="305" viewBox="0 0 504 305" fill="none" xmlns="http://www.w3.org/2000/svg">
<g clip-path="url(#clip0_3_54931)">
<path d="M471 304H145.633L138.5 238C138.5 238 150.019 233.406 173 232.5C203.073 231.315 216.887 236.338 247 236.5C273.571 236.643 282.584 232.5 309 232.5C339 232.5 361.463 236.68 392.5 236.5C429.935 236.283 473 225 473 225L471 304Z" fill="url(#paint0_linear_3_54931)" stroke="black" stroke-linejoin="round"/>
<g filter="url(#filter0_n_3_54931)">
<path d="M132 204.999C94.1414 185.857 25.884 189.515 6.35299 191.033C3.28892 191.271 1 193.834 1 196.908V297.999C1 301.313 3.68629 303.999 7 303.999H190.932C191.51 303.999 191.968 303.53 191.921 302.954C191.471 297.442 188.958 271.361 180.5 254C172.047 236.649 151.208 214.711 132 204.999Z" fill="#B39985"/>
<path d="M132 204.999C94.1414 185.857 25.884 189.515 6.35299 191.033C3.28892 191.271 1 193.834 1 196.908V297.999C1 301.313 3.68629 303.999 7 303.999H190.932C191.51 303.999 191.968 303.53 191.921 302.954C191.471 297.442 188.958 271.361 180.5 254C172.047 236.649 151.208 214.711 132 204.999Z" stroke="black" stroke-linejoin="round"/>
</g>
<path d="M109 31.7153L31 12.3161L49.1865 1L104.15 14.741L109 31.7153Z" fill="#0276D4" stroke="black" stroke-linejoin="round"/>
<path d="M82 255H54V244L58 241H85V252L82 255Z" fill="#4D4D4D"/>
<path d="M54 244H82M85 241V252L82 255H54V244L58 241H85ZM82 244V255M82 244L85 241" stroke="black" stroke-linejoin="round"/>
<path d="M48 155.5V86L51 97V167L48 155.5Z" fill="#0276D4" stroke="black" stroke-linejoin="round"/>
<path d="M58.5 92L62.5 103H47.5L45 92H58.5Z" fill="#ECE8EB" stroke="black" stroke-linejoin="round"/>
<path d="M294.5 84.3752V67.6231C297.43 67.6229 298.704 67.6233 301.5 67.6233V84.3752C299 84.875 297 84.875 294.5 84.3752Z" fill="#C0C0C0" stroke="black" stroke-linecap="round" stroke-linejoin="round"/>
<path d="M194 78.5L190 80.5L191.5 84L196 81.5L194 78.5Z" fill="#0276D4" stroke="black" stroke-linecap="round" stroke-linejoin="round"/>
<path d="M81.6364 124L77.5 126L79 129.5L83.5 127.5L81.6364 124Z" fill="#0276D4" stroke="black" stroke-linecap="round" stroke-linejoin="round"/>
<path d="M75 15H65V235H75V15Z" fill="#42AAFF" stroke="black"/>
<path d="M294 76V70H75V76H294Z" fill="#42AAFF" stroke="black" stroke-linejoin="round"/>
<path d="M31 15.9528V12.3154L109 31.7145V35.3519L31 15.9528Z" fill="#848486" stroke="black" stroke-linejoin="round"/>
<path d="M75 40.5C71.1269 41.1925 68.9374 41.192 65 40.5L64.5 40H59V46H64.5L65 45.5C68.9305 46.1143 71.1017 46.2436 75 45.5L75.5 46H81V40H75.5L75 40.5Z" fill="#0276D4" stroke="black" stroke-linejoin="round"/>
<path d="M61.9447 42.1106L61.5447 42.9106C61.5166 42.9669 61.5166 43.0331 61.5447 43.0894L61.9447 43.8894C61.9786 43.9572 62.0479 44 62.1236 44H62.8764C62.9521 44 63.0214 43.9572 63.0553 43.8894L63.4553 43.0894C63.4834 43.0331 63.4834 42.9669 63.4553 42.9106L63.0553 42.1106C63.0214 42.0428 62.9521 42 62.8764 42H62.1236C62.0479 42 61.9786 42.0428 61.9447 42.1106Z" fill="#9A9A9A"/>
<path d="M77.4447 42.1106L77.0447 42.9106C77.0166 42.9669 77.0166 43.0331 77.0447 43.0894L77.4447 43.8894C77.4786 43.9572 77.5479 44 77.6236 44H78.3764C78.4521 44 78.5214 43.9572 78.5553 43.8894L78.9553 43.0894C78.9834 43.0331 78.9834 42.9669 78.9553 42.9106L78.5553 42.1106C78.5214 42.0428 78.4521 42 78.3764 42H77.6236C77.5479 42 77.4786 42.0428 77.4447 42.1106Z" fill="#9A9A9A"/>
<path d="M75 51.5C71.1269 52.1925 68.9374 52.192 65 51.5L64.5 51V57L65 56.5C68.9305 57.1143 71.1017 57.2436 75 56.5L75.5 57V51L75 51.5Z" fill="#0276D4" stroke="black" stroke-linejoin="round"/>
<path d="M69 54.5L56.5 59L49.5 67.5" stroke="#0276D4" stroke-width="1.5" stroke-linecap="round" stroke-linejoin="round"/>
<path d="M69 54.5L53.5 57L43.5 65" stroke="#0276D4" stroke-width="1.5" stroke-linecap="round" stroke-linejoin="round"/>
<path d="M69 54.5H51.5L38.5 62.5" stroke="#0276D4" stroke-width="1.5" stroke-linecap="round" stroke-linejoin="round"/>
<path d="M72.5 54.5L85 59L92 67.5" stroke="#0276D4" stroke-width="1.5" stroke-linecap="round" stroke-linejoin="round"/>
<path d="M72.5 54.5L88 57L98 65" stroke="#0276D4" stroke-width="1.5" stroke-linecap="round" stroke-linejoin="round"/>
<path d="M72.5 54.5H90L103 62.5" stroke="#0276D4" stroke-width="1.5" stroke-linecap="round" stroke-linejoin="round"/>
<path d="M70.5 67C72.2568 67.2557 73.244 67.2331 75 67V79C73.2058 79.2215 72.2143 79.2617 70.5 79V67Z" fill="#0276D4" stroke="black" stroke-linecap="round" stroke-linejoin="round"/>
<path d="M70.5 122C72.2568 122.256 73.244 122.233 75 122V134C73.2058 134.221 72.2143 134.262 70.5 134V122Z" fill="#0276D4" stroke="black" stroke-linecap="round" stroke-linejoin="round"/>
<path d="M78 125.6C79.3255 125.6 80.4004 126.675 80.4004 128C80.4004 129.325 79.3255 130.4 78 130.4H75.5C75.2791 130.4 75.0996 130.221 75.0996 130V126C75.0996 125.779 75.2791 125.6 75.5 125.6H78Z" fill="#0276D4" stroke="black" stroke-width="0.8" stroke-linejoin="round"/>
<path d="M198.4 79C198.4 80.3255 197.325 81.4004 196 81.4004C194.675 81.4004 193.6 80.3255 193.6 79V76.5C193.6 76.2791 193.779 76.0996 194 76.0996H198C198.221 76.0996 198.4 76.2791 198.4 76.5V79Z" fill="#0276D4" stroke="black" stroke-width="0.8" stroke-linejoin="round"/>
<path d="M192.919 84.0244L191.048 79.3877L81.0003 123.794L82.8713 128.431L192.919 84.0244Z" fill="#42AAFF" stroke="black" stroke-linejoin="round"/>
<path d="M294 82.375V69.875H302V71.375H305.5V81.375H302V82.375H294Z" fill="#0276D4" stroke="black" stroke-linecap="round" stroke-linejoin="round"/>
<path d="M290.5 59.5C290.5 58 290.5 57 292 57H298C299.5 57 299.5 58 299.5 59.5V61H297V60C297 59.7239 296.776 59.5 296.5 59.5H293.5C293.224 59.5 293 59.7216 293 59.9977V67C293 67.5 293 68.5 292 68.5H290.5H73C72.4477 68.5 72 68.9477 72 69.5V121.614C72 122.166 71.5523 122.614 71 122.614H65L65 119.5H68C68.5523 119.5 69 119.052 69 118.5V67C69 66.4477 69.4477 66 70 66H290C290.276 66 290.5 65.7776 290.5 65.5014V59.5Z" fill="black"/>
<path d="M294.5 61.375V63.875C297 63.375 299 63.375 301.5 63.875V61.375C299 60.875 297 60.8746 294.5 61.375Z" fill="#C0C0C0" stroke="black" stroke-linecap="round" stroke-linejoin="round"/>
<path d="M294 67.375V63.875C297.12 63.3437 298.866 63.3832 302 63.875V67.375C299 67.875 297 67.875 294 67.375Z" fill="#A4A4A4" stroke="black" stroke-linecap="round" stroke-linejoin="round"/>
<path d="M63 158.5V103.5C63 103.224 62.7761 103 62.5 103H48.5C48.2239 103 48 103.224 48 103.5V158.5C48 158.776 48.2239 159 48.5 159H62.5C62.7761 159 63 158.776 63 158.5Z" fill="#ECE8EB" stroke="black" stroke-linejoin="round"/>
<path d="M45.5 103H47.5C47.7761 103 48 103.224 48 103.5V158.5C48 158.776 47.7761 159 47.5 159H45.5C45.2239 159 45 158.776 45 158.5V103.5C45 103.224 45.2239 103 45.5 103Z" fill="#ECE8EB" stroke="black" stroke-linejoin="round"/>
<path d="M36.5 9L107.5 27.5M41.5 6L106 22.5M46 3.5L105 18M38.5 14L55 2.5M45.5 16L59.5 3.5M52.5 18L64.5 5M59.5 19.5L69 6M65.5 21L73.5 7M72 23L77 8.5M77.5 24L81 9M82.5 25.5L85 10M88 26.5L89.5 11.5M93.5 28V12M99 29L98.5 13.5" stroke="black" stroke-linejoin="round"/>
<path d="M48 103H45L43 92H45.5L48 103Z" fill="#ECE8EB" stroke="black" stroke-linejoin="round"/>
<path d="M43 151V92L45 103V159L43 151Z" fill="#ECE8EB" stroke="black" stroke-linejoin="round"/>
<path d="M64.5 97C64.7761 97 65 97.2239 65 97.5V166.5C65 166.776 64.7761 167 64.5 167H51.5C51.2239 167 51 166.776 51 166.5V97.5C51 97.2239 51.2239 97 51.5 97H64.5ZM53.5 99C53.2239 99 53 99.2239 53 99.5V164.5C53 164.776 53.2239 165 53.5 165H62.5C62.7761 165 63 164.776 63 164.5V99.5C63 99.2239 62.7761 99 62.5 99H53.5Z" fill="#0276D4"/>
<path d="M64.5 97V97.5H65H65.5C65.5 96.9477 65.0523 96.5 64.5 96.5V97ZM65 97.5H64.5V166.5H65H65.5V97.5H65ZM65 166.5H64.5V167V167.5C65.0523 167.5 65.5 167.052 65.5 166.5H65ZM64.5 167V166.5H51.5V167V167.5H64.5V167ZM51.5 167V166.5H51H50.5C50.5 167.052 50.9477 167.5 51.5 167.5V167ZM51 166.5H51.5V97.5H51H50.5V166.5H51ZM51 97.5H51.5V97V96.5C50.9477 96.5 50.5 96.9477 50.5 97.5H51ZM51.5 97V97.5H64.5V97V96.5H51.5V97ZM53.5 99V98.5C52.9477 98.5 52.5 98.9477 52.5 99.5H53H53.5V99ZM53 99.5H52.5V164.5H53H53.5V99.5H53ZM53 164.5H52.5C52.5 165.052 52.9477 165.5 53.5 165.5V165V164.5H53ZM53.5 165V165.5H62.5V165V164.5H53.5V165ZM62.5 165V165.5C63.0523 165.5 63.5 165.052 63.5 164.5H63H62.5V165ZM63 164.5H63.5V99.5H63H62.5V164.5H63ZM63 99.5H63.5C63.5 98.9477 63.0523 98.5 62.5 98.5V99V99.5H63ZM62.5 99V98.5H53.5V99V99.5H62.5V99Z" fill="black"/>
<path d="M65 97H51L48 86H60.5L65 97ZM52.5 95.5H62.5L59.5 87.5H50L52.5 95.5Z" fill="#0276D4"/>
<path d="M65 97V97.5C65.1666 97.5 65.3223 97.417 65.4151 97.2787C65.508 97.1404 65.5259 96.9649 65.4628 96.8107L65 97ZM51 97L50.5176 97.1316C50.5769 97.3491 50.7745 97.5 51 97.5V97ZM48 86V85.5C47.8442 85.5 47.6972 85.5727 47.6026 85.6965C47.5081 85.8203 47.4766 85.9812 47.5176 86.1316L48 86ZM60.5 86L60.9628 85.8107C60.8859 85.6228 60.703 85.5 60.5 85.5V86ZM52.5 95.5L52.0228 95.6491C52.088 95.8579 52.2813 96 52.5 96V95.5ZM62.5 95.5V96C62.664 96 62.8176 95.9196 62.911 95.7848C63.0044 95.65 63.0257 95.478 62.9682 95.3244L62.5 95.5ZM59.5 87.5L59.9682 87.3244C59.895 87.1293 59.7084 87 59.5 87V87.5ZM50 87.5V87C49.8409 87 49.6914 87.0757 49.5972 87.2038C49.5029 87.332 49.4753 87.4973 49.5228 87.6491L50 87.5ZM65 97V96.5H51V97V97.5H65V97ZM51 97L51.4824 96.8684L48.4824 85.8684L48 86L47.5176 86.1316L50.5176 97.1316L51 97ZM48 86V86.5H60.5V86V85.5H48V86ZM60.5 86L60.0372 86.1893L64.5372 97.1893L65 97L65.4628 96.8107L60.9628 85.8107L60.5 86ZM52.5 95.5V96H62.5V95.5V95H52.5V95.5ZM62.5 95.5L62.9682 95.3244L59.9682 87.3244L59.5 87.5L59.0318 87.6756L62.0318 95.6756L62.5 95.5ZM59.5 87.5V87H50V87.5V88H59.5V87.5ZM50 87.5L49.5228 87.6491L52.0228 95.6491L52.5 95.5L52.9772 95.3509L50.4772 87.3509L50 87.5Z" fill="black"/>
<path d="M74.5 234.5H65.5C61.8636 236.522 60.7464 238.422 59 242C67.515 243.119 72.3411 243.039 81 242C79.1188 237.959 77.7578 236.224 74.5 234.5Z" fill="#0276D4" stroke="black" stroke-linejoin="round"/>
<path d="M499 304H471C468.791 304 467 302.209 467 300V148C467 145.791 468.791 144 471 144H499C501.209 144 503 145.791 503 148V300C503 302.209 501.209 304 499 304Z" fill="#FFD178" stroke="black" stroke-width="1.5" stroke-linecap="round" stroke-linejoin="round"/>
<path d="M470 161H482" stroke="black" stroke-width="1.5" stroke-linejoin="round"/>
<path d="M470 169H482" stroke="black" stroke-width="1.5" stroke-linejoin="round"/>
<path d="M470 177H482" stroke="black" stroke-width="1.5" stroke-linejoin="round"/>
<path d="M470 185H482" stroke="black" stroke-width="1.5" stroke-linejoin="round"/>
<path d="M470 201H482" stroke="black" stroke-width="1.5" stroke-linejoin="round"/>
<path d="M470 209H482" stroke="black" stroke-width="1.5" stroke-linejoin="round"/>
<path d="M470 217H482" stroke="black" stroke-width="1.5" stroke-linejoin="round"/>
<path d="M470 225H482" stroke="black" stroke-width="1.5" stroke-linejoin="round"/>
<path d="M470 241H482" stroke="black" stroke-width="1.5" stroke-linejoin="round"/>
<path d="M470 249H482" stroke="black" stroke-width="1.5" stroke-linejoin="round"/>
<path d="M470 257H482" stroke="black" stroke-width="1.5" stroke-linejoin="round"/>
<path d="M470 265H482" stroke="black" stroke-width="1.5" stroke-linejoin="round"/>
<path d="M470 151H488L486 154H470V151Z" fill="#FF0000"/>
<path d="M470 192H488L486 195H470V192Z" fill="#FF0000"/>
<path d="M470 232H488L486.098 235H470V232Z" fill="#FF0000"/>
<path d="M470 280.5H482" stroke="black" stroke-width="1.5" stroke-linejoin="round"/>
<path d="M470 288.5H482" stroke="black" stroke-width="1.5" stroke-linejoin="round"/>
<path d="M470 296.5H482" stroke="black" stroke-width="1.5" stroke-linejoin="round"/>
<path d="M470 271H488L486 274H470V271Z" fill="#FF0000"/>
<path d="M491.592 302.096C491.139 302.096 490.739 301.973 490.392 301.728C490.045 301.477 489.773 301.136 489.576 300.704C489.379 300.267 489.28 299.765 489.28 299.2C489.28 298.635 489.379 298.136 489.576 297.704C489.773 297.267 490.043 296.925 490.384 296.68C490.731 296.429 491.131 296.304 491.584 296.304C492.037 296.304 492.437 296.429 492.784 296.68C493.136 296.925 493.411 297.267 493.608 297.704C493.805 298.136 493.904 298.635 493.904 299.2C493.904 299.765 493.805 300.267 493.608 300.704C493.411 301.136 493.139 301.477 492.792 301.728C492.445 301.973 492.045 302.096 491.592 302.096ZM491.592 301.104C491.832 301.104 492.045 301.024 492.232 300.864C492.424 300.699 492.573 300.475 492.68 300.192C492.787 299.904 492.84 299.573 492.84 299.2C492.84 298.827 492.787 298.496 492.68 298.208C492.573 297.92 492.424 297.696 492.232 297.536C492.045 297.371 491.829 297.288 491.584 297.288C491.344 297.288 491.131 297.371 490.944 297.536C490.757 297.696 490.611 297.92 490.504 298.208C490.403 298.496 490.352 298.827 490.352 299.2C490.352 299.573 490.403 299.904 490.504 300.192C490.611 300.475 490.757 300.699 490.944 300.864C491.136 301.024 491.352 301.104 491.592 301.104Z" fill="black"/>
<path d="M490.56 275V269.984L490.664 269.4H491.608V275H490.56ZM489.376 271.168V270.176C489.509 270.187 489.653 270.155 489.808 270.08C489.963 270 490.115 269.899 490.264 269.776C490.419 269.648 490.552 269.52 490.664 269.392L491.36 270.072C491.168 270.285 490.965 270.48 490.752 270.656C490.539 270.827 490.317 270.96 490.088 271.056C489.864 271.152 489.627 271.189 489.376 271.168ZM494.967 275.096C494.514 275.096 494.114 274.973 493.767 274.728C493.42 274.477 493.148 274.136 492.951 273.704C492.754 273.267 492.655 272.765 492.655 272.2C492.655 271.635 492.754 271.136 492.951 270.704C493.148 270.267 493.418 269.925 493.759 269.68C494.106 269.429 494.506 269.304 494.959 269.304C495.412 269.304 495.812 269.429 496.159 269.68C496.511 269.925 496.786 270.267 496.983 270.704C497.18 271.136 497.279 271.635 497.279 272.2C497.279 272.765 497.18 273.267 496.983 273.704C496.786 274.136 496.514 274.477 496.167 274.728C495.82 274.973 495.42 275.096 494.967 275.096ZM494.967 274.104C495.207 274.104 495.42 274.024 495.607 273.864C495.799 273.699 495.948 273.475 496.055 273.192C496.162 272.904 496.215 272.573 496.215 272.2C496.215 271.827 496.162 271.496 496.055 271.208C495.948 270.92 495.799 270.696 495.607 270.536C495.42 270.371 495.204 270.288 494.959 270.288C494.719 270.288 494.506 270.371 494.319 270.536C494.132 270.696 493.986 270.92 493.879 271.208C493.778 271.496 493.727 271.827 493.727 272.2C493.727 272.573 493.778 272.904 493.879 273.192C493.986 273.475 494.132 273.699 494.319 273.864C494.511 274.024 494.727 274.104 494.967 274.104Z" fill="black"/>
<path d="M489.408 236V235.192C489.408 235.037 489.456 234.867 489.552 234.68C489.648 234.493 489.781 234.307 489.952 234.12C490.123 233.933 490.323 233.76 490.552 233.6L491.4 232.992C491.517 232.912 491.627 232.821 491.728 232.72C491.835 232.619 491.92 232.509 491.984 232.392C492.053 232.269 492.088 232.152 492.088 232.04C492.088 231.901 492.053 231.776 491.984 231.664C491.92 231.552 491.824 231.464 491.696 231.4C491.568 231.336 491.411 231.304 491.224 231.304C491.064 231.304 490.92 231.336 490.792 231.4C490.669 231.464 490.568 231.549 490.488 231.656C490.408 231.763 490.352 231.877 490.32 232L489.192 231.808C489.245 231.541 489.36 231.293 489.536 231.064C489.712 230.835 489.941 230.651 490.224 230.512C490.512 230.368 490.837 230.296 491.2 230.296C491.616 230.296 491.973 230.371 492.272 230.52C492.571 230.669 492.8 230.875 492.96 231.136C493.125 231.392 493.208 231.691 493.208 232.032C493.208 232.379 493.112 232.688 492.92 232.96C492.733 233.227 492.475 233.477 492.144 233.712L491.384 234.264C491.229 234.371 491.096 234.488 490.984 234.616C490.872 234.744 490.787 234.885 490.728 235.04H493.28V236H489.408ZM496.225 236.096C495.771 236.096 495.371 235.973 495.025 235.728C494.678 235.477 494.406 235.136 494.209 234.704C494.011 234.267 493.913 233.765 493.913 233.2C493.913 232.635 494.011 232.136 494.209 231.704C494.406 231.267 494.675 230.925 495.017 230.68C495.363 230.429 495.763 230.304 496.217 230.304C496.67 230.304 497.07 230.429 497.417 230.68C497.769 230.925 498.043 231.267 498.241 231.704C498.438 232.136 498.537 232.635 498.537 233.2C498.537 233.765 498.438 234.267 498.241 234.704C498.043 235.136 497.771 235.477 497.425 235.728C497.078 235.973 496.678 236.096 496.225 236.096ZM496.225 235.104C496.465 235.104 496.678 235.024 496.865 234.864C497.057 234.699 497.206 234.475 497.313 234.192C497.419 233.904 497.473 233.573 497.473 233.2C497.473 232.827 497.419 232.496 497.313 232.208C497.206 231.92 497.057 231.696 496.865 231.536C496.678 231.371 496.462 231.288 496.217 231.288C495.977 231.288 495.763 231.371 495.577 231.536C495.39 231.696 495.243 231.92 495.137 232.208C495.035 232.496 494.985 232.827 494.985 233.2C494.985 233.573 495.035 233.904 495.137 234.192C495.243 234.475 495.39 234.699 495.577 234.864C495.769 235.024 495.985 235.104 496.225 235.104Z" fill="black"/>
<path d="M491.248 196.096C490.917 196.096 490.619 196.048 490.352 195.952C490.085 195.851 489.861 195.709 489.68 195.528C489.504 195.341 489.381 195.123 489.312 194.872L490.32 194.576C490.357 194.64 490.408 194.72 490.472 194.816C490.536 194.907 490.624 194.984 490.736 195.048C490.848 195.112 490.995 195.144 491.176 195.144C491.443 195.144 491.653 195.072 491.808 194.928C491.968 194.779 492.048 194.587 492.048 194.352C492.048 194.192 492.008 194.051 491.928 193.928C491.848 193.805 491.717 193.712 491.536 193.648C491.36 193.579 491.128 193.544 490.84 193.544H490.504V192.8H490.8C491.12 192.8 491.421 192.84 491.704 192.92C491.987 192.995 492.235 193.107 492.448 193.256C492.667 193.4 492.837 193.576 492.96 193.784C493.083 193.987 493.144 194.219 493.144 194.48C493.144 194.816 493.056 195.107 492.88 195.352C492.704 195.592 492.472 195.776 492.184 195.904C491.896 196.032 491.584 196.096 491.248 196.096ZM490.504 193.344V192.648H490.84C491.213 192.648 491.491 192.584 491.672 192.456C491.853 192.328 491.944 192.152 491.944 191.928C491.944 191.8 491.912 191.685 491.848 191.584C491.784 191.483 491.693 191.403 491.576 191.344C491.459 191.285 491.323 191.256 491.168 191.256C491.067 191.256 490.963 191.275 490.856 191.312C490.749 191.344 490.651 191.4 490.56 191.48C490.475 191.555 490.405 191.664 490.352 191.808L489.36 191.512C489.435 191.251 489.563 191.032 489.744 190.856C489.931 190.675 490.152 190.539 490.408 190.448C490.664 190.352 490.928 190.304 491.2 190.304C491.547 190.304 491.859 190.371 492.136 190.504C492.413 190.632 492.632 190.811 492.792 191.04C492.952 191.269 493.032 191.533 493.032 191.832C493.032 192.088 492.971 192.309 492.848 192.496C492.725 192.683 492.557 192.84 492.344 192.968C492.136 193.096 491.899 193.192 491.632 193.256C491.365 193.315 491.088 193.344 490.8 193.344H490.504ZM496.037 196.096C495.584 196.096 495.184 195.973 494.837 195.728C494.491 195.477 494.219 195.136 494.021 194.704C493.824 194.267 493.725 193.765 493.725 193.2C493.725 192.635 493.824 192.136 494.021 191.704C494.219 191.267 494.488 190.925 494.829 190.68C495.176 190.429 495.576 190.304 496.029 190.304C496.483 190.304 496.883 190.429 497.229 190.68C497.581 190.925 497.856 191.267 498.053 191.704C498.251 192.136 498.349 192.635 498.349 193.2C498.349 193.765 498.251 194.267 498.053 194.704C497.856 195.136 497.584 195.477 497.237 195.728C496.891 195.973 496.491 196.096 496.037 196.096ZM496.037 195.104C496.277 195.104 496.491 195.024 496.677 194.864C496.869 194.699 497.019 194.475 497.125 194.192C497.232 193.904 497.285 193.573 497.285 193.2C497.285 192.827 497.232 192.496 497.125 192.208C497.019 191.92 496.869 191.696 496.677 191.536C496.491 191.371 496.275 191.288 496.029 191.288C495.789 191.288 495.576 191.371 495.389 191.536C495.203 191.696 495.056 191.92 494.949 192.208C494.848 192.496 494.797 192.827 494.797 193.2C494.797 193.573 494.848 193.904 494.949 194.192C495.056 194.475 495.203 194.699 495.389 194.864C495.581 195.024 495.797 195.104 496.037 195.104Z" fill="black"/>
<path d="M491.816 155V153.896H489.208V153.024L491.688 149.4H492.848V152.96H493.824V153.896H492.848V155H491.816ZM490.336 152.96H491.816V150.792L490.336 152.96ZM496.655 155.096C496.201 155.096 495.801 154.973 495.455 154.728C495.108 154.477 494.836 154.136 494.639 153.704C494.441 153.267 494.343 152.765 494.343 152.2C494.343 151.635 494.441 151.136 494.639 150.704C494.836 150.267 495.105 149.925 495.447 149.68C495.793 149.429 496.193 149.304 496.647 149.304C497.1 149.304 497.5 149.429 497.847 149.68C498.199 149.925 498.473 150.267 498.671 150.704C498.868 151.136 498.967 151.635 498.967 152.2C498.967 152.765 498.868 153.267 498.671 153.704C498.473 154.136 498.201 154.477 497.855 154.728C497.508 154.973 497.108 155.096 496.655 155.096ZM496.655 154.104C496.895 154.104 497.108 154.024 497.295 153.864C497.487 153.699 497.636 153.475 497.743 153.192C497.849 152.904 497.903 152.573 497.903 152.2C497.903 151.827 497.849 151.496 497.743 151.208C497.636 150.92 497.487 150.696 497.295 150.536C497.108 150.371 496.892 150.288 496.647 150.288C496.407 150.288 496.193 150.371 496.007 150.536C495.82 150.696 495.673 150.92 495.567 151.208C495.465 151.496 495.415 151.827 495.415 152.2C495.415 152.573 495.465 152.904 495.567 153.192C495.673 153.475 495.82 153.699 496.007 153.864C496.199 154.024 496.415 154.104 496.655 154.104Z" fill="black"/>
</g>
<defs>
<filter id="filter0_n_3_54931" x="0.5" y="189.222" width="191.924" height="115.277" filterUnits="userSpaceOnUse" color-interpolation-filters="sRGB">
<feFlood flood-opacity="0" result="BackgroundImageFix"/>
<feBlend mode="normal" in="SourceGraphic" in2="BackgroundImageFix" result="shape"/>
<feTurbulence type="fractalNoise" baseFrequency="2 2" stitchTiles="stitch" numOctaves="3" result="noise" seed="1257" />
<feColorMatrix in="noise" type="luminanceToAlpha" result="alphaNoise" />
<feComponentTransfer in="alphaNoise" result="coloredNoise1">
<feFuncA type="discrete" tableValues="1 1 1 1 1 1 1 1 1 1 1 1 1 1 1 1 1 1 1 1 1 1 1 1 1 1 1 1 1 1 1 1 1 1 1 1 1 1 1 1 1 1 1 1 1 1 1 1 1 1 1 0 0 0 0 0 0 0 0 0 0 0 0 0 0 0 0 0 0 0 0 0 0 0 0 0 0 0 0 0 0 0 0 0 0 0 0 0 0 0 0 0 0 0 0 0 0 0 0 0 "/>
</feComponentTransfer>
<feComposite operator="in" in2="shape" in="coloredNoise1" result="noise1Clipped" />
<feFlood flood-color="rgba(0, 0, 0, 0.25)" result="color1Flood" />
<feComposite operator="in" in2="noise1Clipped" in="color1Flood" result="color1" />
<feMerge result="effect1_noise_3_54931">
<feMergeNode in="shape" />
<feMergeNode in="color1" />
</feMerge>
</filter>
<linearGradient id="paint0_linear_3_54931" x1="324.068" y1="253.5" x2="324.822" y2="304.009" gradientUnits="userSpaceOnUse">
<stop stop-color="#9FE5FF"/>
<stop offset="1" stop-color="#46BAE5"/>
</linearGradient>
<clipPath id="clip0_3_54931">
<rect width="504" height="305" fill="white"/>
</clipPath>
</defs>
</svg>
